# xmcd CD database file
#
# Track frame offsets:
#	150
#	11185
#	25412
#	37052
#	48682
#	63347
#	73745
#	84917
#	96077
#	110747
#
# Disc length: 1672 seconds
#
# Revision: 1
# Processed by: cddbd v1.5.1PL2 Copyright (c) Steve Scherf et al.
# Submitted via: CDex 1.51
#
DISCID=8b06860a
DTITLE=Marty Robbins - Singin' The Hits
DYEAR=1990
DGENRE=Country
TTITLE0=Singing The Blues
TTITLE1=Have I Told You Lately That I Love You
TTITLE2=Lovesick Blues
TTITLE3=I Started Loving You Again
TTITLE4=Don't Worry
TTITLE5=Bouquet Of Roses
TTITLE6=Kaw-Liga
TTITLE7=Begging To You
TTITLE8=She Thinks I Still Care
TTITLE9=The Great Speckled Bird
EXTD=YEAR: 1990
EXTT0=
EXTT1=
EXTT2=
EXTT3=
EXTT4=
EXTT5=
EXTT6=
EXTT7=
EXTT8=
EXTT9=
PLAYORDER=
